<svg xmlns="http://www.w3.org/2000/svg" viewBox="0 0 226.46 559.08" aria-labelledby="logo_proto_title" role="img">
	<title id="logo_proto_title">Logo de mon curriculum vitae</title>

	<g>
		<g>
			<polygon points="212.38 2.19 206.93 0 12.08 180.16 36.89 190.17 101.08 130.92 165.85 157.02 195.99 144.2 119.91 113.53 190.51 48.35 195.99 144.2 196.94 169.56 196.95 169.56 202.44 256.89 226.46 266.58 212.38 2.19"/>
			<path d="M30,201.56l167.77,67.5a390.32,390.32,0,0,0-86.15,97.76c-48,77.65-56.57,153.28-58.16,192.26C33.57,523.26-2.11,447.3.1,346.64A412.77,412.77,0,0,1,30,201.56Z"/>
		</g>
	</g>
</svg>