<?xml version="1.0" encoding="UTF-8"?>
<svg id="logo-rocket" xmlns="http://www.w3.org/2000/svg" viewBox="0 0 6.948 43.386" aria-labelledby="logo-rocket-title" role="img">
  <title id="logo-rocket-title">Logo de mon curriculum vitae</title>

  <defs>
    <style>
      .filler { fill: red; }
    </style>
  </defs>

  <g>
    <g id="Trail">
      <path id="Scattered_trail" d="M1.286,40.437c.468,.288,1.151,.528,1.871,.528,1.067,0,1.691-.563,1.691-1.379,0-.755-.432-1.187-1.523-1.607-1.319-.468-2.135-1.151-2.135-2.291,0-1.259,1.043-2.195,2.614-2.195,.828,0,1.427,.192,1.787,.396l-.288,.852c-.264-.144-.803-.384-1.535-.384-1.103,0-1.523,.66-1.523,1.211,0,.755,.492,1.127,1.607,1.559,1.367,.528,2.063,1.188,2.063,2.375,0,1.248-.923,2.327-2.831,2.327-.779,0-1.631-.228-2.062-.516l.264-.875Z"/>
      <path id="Straight_trail" d="M3.991,25.121v8.083h-1.043v-8.083h1.043Z"/>
    </g>
    <g id="Body">
      <path id="Thruster" d="M5.593,24.83l-1.145-1.787c-.466-.684-.759-1.127-1.038-1.595h-.027c-.253,.468-.506,.9-.972,1.607l-1.079,1.775H0l2.743-4.09L.106,16.747H1.451l1.185,1.895c.333,.527,.586,.936,.825,1.367h.04c.253-.48,.48-.852,.812-1.367l1.226-1.895h1.331l-2.73,3.934,2.797,4.15h-1.345Z"/>
      <g id="Middle_part">
        <polygon id="E" points="6.866 8.373 4.057 8.373 4.052 8.373 4.052 9.249 4.057 9.249 5.822 9.249 5.822 11.803 4.057 11.803 4.052 11.803 4.052 12.667 4.057 12.667 5.822 12.667 5.822 15.581 4.057 15.581 4.052 15.581 4.052 16.457 4.057 16.457 6.866 16.457 6.871 16.457 6.871 8.373 6.866 8.373"/>
        <polygon id="L" points="3.009 15.581 2.974 15.581 1.186 15.581 1.186 8.373 1.149 8.373 .143 8.373 .106 8.373 .106 16.457 .143 16.457 2.974 16.457 3.009 16.457 3.009 15.581"/>
      </g>
      <path id="Nose" d="M2.025,5.541l-.839,2.542H.106L2.853,0h1.259l2.758,8.083h-1.115l-.863-2.542H2.025Zm2.65-.815l-.792-2.327c-.18-.527-.3-1.007-.419-1.475h-.024c-.12,.48-.251,.972-.408,1.463l-.792,2.339h2.435Z"/>
    </g>
    <g id="Hole_filler">
      <path id="I-S" class="filler" d="M3.805,33.493c.048,0,.091,0,.091,0,.039,0,.072,.002,.095,.003v-.293h-1.043v.392c.163-.041,.304-.063,.415-.077,0,0,.18-.022,.442-.026Z"/>
      <rect id="X-I" class="filler" y="24.83" width="6.938" height=".29"/>
      <rect id="E-X" class="filler" x="5.54" y="16.457" width="1.331" height=".29"/>
      <rect id="L-X" class="filler" x=".106" y="16.457" width="1.345" height=".29"/>
      <rect id="E-L" class="filler" x="3.009" y="15.581" width="1.043" height=".875"/>
      <rect id="A-E" class="filler" x="5.757" y="8.083" width="1.113" height=".29"/>
      <rect id="A-L" class="filler" x=".106" y="8.083" width="1.08" height=".29"/>
    </g>
  </g>
</svg>