<svg xmlns="http://www.w3.org/2000/svg" viewBox="0 0 331.719 429.432" aria-labelledby="marker_title" role="img"><title id="marker_title">Pointeur sur une carte</title><path d="M326.924 171.666c-8.619 1.32-16.953 2.409-25.006 3.291s-15.823 1.557-23.316 2.05a499.63 499.63 0 0 1-21.649.96c-6.941.155-13.608.153-20.005.02s-12.523-.399-18.383-.77-11.453-.85-16.783-1.41-10.398-1.202-15.206-1.9a374.98 374.98 0 0 1-13.652-2.239l-6.986-1.315-8.137-1.511-9.277-1.572-10.406-1.5c-3.656-.473-7.498-.912-11.524-1.294s-8.237-.708-12.631-.954-8.97-.414-13.727-.481-9.695-.032-14.811.126c-3.464.107-6.849.266-10.151.468l-9.649.731-9.118.948-8.557 1.118-7.966 1.241-7.346 1.317-6.696 1.347-6.016 1.33.599-20.376.599-20.376.599-20.376.599-20.376.599-20.376.599-20.376.599-20.376.599-20.376 6.016-1.33 6.696-1.347 7.346-1.317 7.966-1.241 8.557-1.118 9.118-.948 9.649-.731C83.368.424 86.753.266 90.217.159 95.335 0 100.273-.034 105.03.032s9.333.234 13.727.481 8.605.572 12.631.954a339.58 339.58 0 0 1 11.524 1.294l10.406 1.5 9.277 1.572 8.137 1.511 6.986 1.315a374.98 374.98 0 0 0 13.652 2.239c4.808.698 9.876 1.34 15.206 1.9a408.04 408.04 0 0 0 16.783 1.41 431.69 431.69 0 0 0 18.383.77c6.397.133 13.064.135 20.005-.02s14.156-.466 21.649-.96 15.264-1.168 23.316-2.05a587.03 587.03 0 0 0 25.006-3.291l-.599 20.376-.599 20.376-.599 20.376-.599 20.376-.599 20.376-.599 20.376-.599 20.376-.599 20.376z" fill="#fff"/><path d="M177.852 30.798c-19.92-1.524-37.304 13.39-38.828 33.31-.508 6.646.821 13.005 3.548 18.592l26.48 63.159 35.777-58.398c3.544-5.107 5.825-11.19 6.333-17.836 1.524-19.92-13.39-37.304-33.31-38.828zm-4.523 59.13c-12.736-.974-22.271-12.088-21.297-24.824s12.088-22.271 24.824-21.297 22.271 12.088 21.297 24.824-12.088 22.271-24.824 21.297zM0 429.05L15.682 7.993l10.269.382-15.682 421.057z" fill="#c91f37"/></svg>